<svg xmlns="http://www.w3.org/2000/svg"><symbol viewBox="0 0 62 62" id="api">
<path d="M59 8H5C4.20435 8 3.44129 8.31607 2.87868 8.87868C2.31607 9.44129 2 10.2044 2 11V45C2 45.7956 2.31607 46.5587 2.87868 47.1213C3.44129 47.6839 4.20435 48 5 48H24V54H19C18.2044 54 17.4413 54.3161 16.8787 54.8787C16.3161 55.4413 16 56.2044 16 57V62H48V57C48 56.2044 47.6839 55.4413 47.1213 54.8787C46.5587 54.3161 45.7956 54 45 54H40V48H59C59.7956 48 60.5587 47.6839 61.1213 47.1213C61.6839 46.5587 62 45.7956 62 45V11C62 10.2044 61.6839 9.44129 61.1213 8.87868C60.5587 8.31607 59.7956 8 59 8V8ZM45 56C45.2652 56 45.5196 56.1054 45.7071 56.2929C45.8946 56.4804 46 56.7348 46 57V60H18V57C18 56.7348 18.1054 56.4804 18.2929 56.2929C18.4804 56.1054 18.7348 56 19 56H45ZM38 54H26V48H38V54ZM60 45C60 45.2652 59.8946 45.5196 59.7071 45.7071C59.5196 45.8946 59.2652 46 59 46H5C4.73478 46 4.48043 45.8946 4.29289 45.7071C4.10536 45.5196 4 45.2652 4 45V11C4 10.7348 4.10536 10.4804 4.29289 10.2929C4.48043 10.1054 4.73478 10 5 10H59C59.2652 10 59.5196 10.1054 59.7071 10.2929C59.8946 10.4804 60 10.7348 60 11V45Z" fill="black"/>
<path d="M57 12H7C6.73478 12 6.48043 12.1054 6.29289 12.2929C6.10536 12.4804 6 12.7348 6 13V41C6 41.2652 6.10536 41.5196 6.29289 41.7071C6.48043 41.8946 6.73478 42 7 42H57C57.2652 42 57.5196 41.8946 57.7071 41.7071C57.8946 41.5196 58 41.2652 58 41V13C58 12.7348 57.8946 12.4804 57.7071 12.2929C57.5196 12.1054 57.2652 12 57 12ZM56 40H8V14H56V40Z" fill="black"/>
<path d="M18.826 36.985C19.0871 37.0309 19.3557 36.9713 19.5729 36.8192C19.79 36.6671 19.9379 36.4351 19.984 36.174L21.074 30H25.926L27.016 36.174C27.0569 36.4053 27.1779 36.6149 27.3578 36.7659C27.5377 36.917 27.7651 36.9998 28 37C28.0586 36.9999 28.1172 36.9949 28.175 36.985C28.4361 36.9387 28.6681 36.7906 28.82 36.5732C28.9719 36.3559 29.0312 36.0871 28.985 35.826L25.985 18.826C25.9441 18.5945 25.8229 18.3848 25.6428 18.2338C25.4627 18.0827 25.2351 17.9999 25 18H22C21.7651 18.0002 21.5377 18.083 21.3578 18.2341C21.1779 18.3851 21.0569 18.5947 21.016 18.826L18.016 35.826C17.9698 36.0871 18.0291 36.3559 18.181 36.5732C18.3329 36.7906 18.5649 36.9387 18.826 36.985ZM22.839 20H24.161L25.573 28H21.427L22.839 20Z" fill="black"/>
<path d="M32 37C32.2652 37 32.5196 36.8946 32.7071 36.7071C32.8946 36.5196 33 36.2652 33 36V28H36C37.3261 28 38.5979 27.4732 39.5355 26.5355C40.4732 25.5979 41 24.3261 41 23C41 21.6739 40.4732 20.4021 39.5355 19.4645C38.5979 18.5268 37.3261 18 36 18H32C31.7348 18 31.4804 18.1054 31.2929 18.2929C31.1054 18.4804 31 18.7348 31 19V36C31 36.2652 31.1054 36.5196 31.2929 36.7071C31.4804 36.8946 31.7348 37 32 37ZM33 20H36C36.7956 20 37.5587 20.3161 38.1213 20.8787C38.6839 21.4413 39 22.2044 39 23C39 23.7956 38.6839 24.5587 38.1213 25.1213C37.5587 25.6839 36.7956 26 36 26H33V20Z" fill="black"/>
<path d="M44 37C44.2652 37 44.5196 36.8946 44.7071 36.7071C44.8946 36.5196 45 36.2652 45 36V19C45 18.7348 44.8946 18.4804 44.7071 18.2929C44.5196 18.1054 44.2652 18 44 18C43.7348 18 43.4804 18.1054 43.2929 18.2929C43.1054 18.4804 43 18.7348 43 19V36C43 36.2652 43.1054 36.5196 43.2929 36.7071C43.4804 36.8946 43.7348 37 44 37Z" fill="black"/>
</symbol><symbol viewBox="0 0 480 512" id="css"><polygon style="fill: rgb(33, 150, 243);" points="32,0 72.8,460.8 256,512 439.136,460.832 480,0 "/><polygon style="fill: rgb(250, 250, 250);" points="392.768,150.688 387.616,208.576 372.064,382.112 256,414.208 255.904,414.24   139.904,382.112 131.808,291.36 188.64,291.36 192.864,338.432 255.936,355.456 255.968,355.424 319.136,338.4 327.744,259.968   129.088,260.512 123.456,206.88 332.512,204.416 336.736,147.008 117.856,147.616 114.176,94.208 256,94.208 397.824,94.208 "/><g/><g/><g/><g/><g/><g/><g/><g/><g/><g/><g/><g/><g/><g/><g/></symbol><symbol viewBox="0 0 48 48" id="figma">
<path d="M0 24C0 10.7452 10.7452 0 24 0C37.2548 0 48 10.7452 48 24C48 37.2548 37.2548 48 24 48C10.7452 48 0 37.2548 0 24Z" fill="#333333"/>
<path d="M19.2 38.3999C21.851 38.3999 24 36.2509 24 33.5999V28.7999H19.2C16.549 28.7999 14.4 30.949 14.4 33.5999C14.4 36.2509 16.549 38.3999 19.2 38.3999Z" fill="#0ACF83"/>
<path d="M14.4 24C14.4 21.349 16.549 19.2 19.2 19.2H24V28.8H19.2C16.549 28.8 14.4 26.6509 14.4 24Z" fill="#A259FF"/>
<path d="M14.4 14.4C14.4 11.749 16.549 9.59998 19.2 9.59998H24V19.2H19.2C16.549 19.2 14.4 17.0509 14.4 14.4Z" fill="#F24E1E"/>
<path d="M24 9.59998H28.8C31.451 9.59998 33.6 11.749 33.6 14.4C33.6 17.0509 31.451 19.2 28.8 19.2H24V9.59998Z" fill="#FF7262"/>
<path d="M33.6 24C33.6 26.6509 31.451 28.8 28.8 28.8C26.149 28.8 24 26.6509 24 24C24 21.349 26.149 19.2 28.8 19.2C31.451 19.2 33.6 21.349 33.6 24Z" fill="#1ABCFE"/>
</symbol><symbol viewBox="0 0 256.00098 255.99467" id="git">
    <g>
        <path d="M251.172245,116.593517 L139.398753,4.82845302 C132.966433,-1.60948434 122.525852,-1.60948434 116.085106,4.82845302 L92.8753863,28.0381721 L122.317995,57.4807809 C129.16041,55.1690784 137.005593,56.7195763 142.460425,62.1744081 C147.940536,67.6629464 149.479799,75.5755422 147.111919,82.4404282 L175.487156,110.815665 C182.352042,108.450594 190.273064,109.98143 195.755985,115.472777 C203.418591,123.132574 203.418591,135.547794 195.755985,143.213209 C188.09057,150.878624 175.67535,150.878624 168.007126,143.213209 C162.243319,137.443783 160.81922,128.977839 163.737639,121.877008 L137.275245,95.4146135 L137.272436,165.052198 C139.140337,165.979126 140.904309,167.212221 142.460425,168.762719 C150.123031,176.422516 150.123031,188.837736 142.460425,196.508768 C134.79501,204.171375 122.374173,204.171375 114.719993,196.508768 C107.057387,188.837736 107.057387,176.422516 114.719993,168.762719 C116.613174,166.872347 118.804095,165.442631 121.141077,164.481996 L121.141077,94.1955625 C118.804095,93.2405457 116.615983,91.8192558 114.719993,89.9148396 C108.914052,84.1173254 107.518042,75.5980132 110.492639,68.4690928 L81.4713611,39.4421974 L4.83125614,116.076685 C-1.60949009,122.52024 -1.60949009,132.960821 4.83125614,139.398759 L116.604747,251.166631 C123.039876,257.604569 133.477648,257.604569 139.921203,251.166631 L251.172245,139.9184 C257.61018,133.477654 257.61018,123.031455 251.172245,116.593517" fill="#DE4C36"/>
    </g>
</symbol><symbol viewBox="0 0 256 249.68083" id="github">
    <g>
        <path d="M128.00106,0 C57.3172926,0 0,57.3066942 0,128.00106 C0,184.555281 36.6761997,232.535542 87.534937,249.460899 C93.9320223,250.645779 96.280588,246.684165 96.280588,243.303333 C96.280588,240.251045 96.1618878,230.167899 96.106777,219.472176 C60.4967585,227.215235 52.9826207,204.369712 52.9826207,204.369712 C47.1599584,189.574598 38.770408,185.640538 38.770408,185.640538 C27.1568785,177.696113 39.6458206,177.859325 39.6458206,177.859325 C52.4993419,178.762293 59.267365,191.04987 59.267365,191.04987 C70.6837675,210.618423 89.2115753,204.961093 96.5158685,201.690482 C97.6647155,193.417512 100.981959,187.77078 104.642583,184.574357 C76.211799,181.33766 46.324819,170.362144 46.324819,121.315702 C46.324819,107.340889 51.3250588,95.9223682 59.5132437,86.9583937 C58.1842268,83.7344152 53.8029229,70.715562 60.7532354,53.0843636 C60.7532354,53.0843636 71.5019501,49.6441813 95.9626412,66.2049595 C106.172967,63.368876 117.123047,61.9465949 128.00106,61.8978432 C138.879073,61.9465949 149.837632,63.368876 160.067033,66.2049595 C184.49805,49.6441813 195.231926,53.0843636 195.231926,53.0843636 C202.199197,70.715562 197.815773,83.7344152 196.486756,86.9583937 C204.694018,95.9223682 209.660343,107.340889 209.660343,121.315702 C209.660343,170.478725 179.716133,181.303747 151.213281,184.472614 C155.80443,188.444828 159.895342,196.234518 159.895342,208.176593 C159.895342,225.303317 159.746968,239.087361 159.746968,243.303333 C159.746968,246.709601 162.05102,250.70089 168.53925,249.443941 C219.370432,232.499507 256,184.536204 256,128.00106 C256,57.3066942 198.691187,0 128.00106,0 Z M47.9405593,182.340212 C47.6586465,182.976105 46.6581745,183.166873 45.7467277,182.730227 C44.8183235,182.312656 44.2968914,181.445722 44.5978808,180.80771 C44.8734344,180.152739 45.876026,179.97045 46.8023103,180.409216 C47.7328342,180.826786 48.2627451,181.702199 47.9405593,182.340212 Z M54.2367892,187.958254 C53.6263318,188.524199 52.4329723,188.261363 51.6232682,187.366874 C50.7860088,186.474504 50.6291553,185.281144 51.2480912,184.70672 C51.8776254,184.140775 53.0349512,184.405731 53.8743302,185.298101 C54.7115892,186.201069 54.8748019,187.38595 54.2367892,187.958254 Z M58.5562413,195.146347 C57.7719732,195.691096 56.4895886,195.180261 55.6968417,194.042013 C54.9125733,192.903764 54.9125733,191.538713 55.713799,190.991845 C56.5086651,190.444977 57.7719732,190.936735 58.5753181,192.066505 C59.3574669,193.22383 59.3574669,194.58888 58.5562413,195.146347 Z M65.8613592,203.471174 C65.1597571,204.244846 63.6654083,204.03712 62.5716717,202.981538 C61.4524999,201.94927 61.1409122,200.484596 61.8446341,199.710926 C62.5547146,198.935137 64.0575422,199.15346 65.1597571,200.200564 C66.2704506,201.230712 66.6095936,202.705984 65.8613592,203.471174 Z M75.3025151,206.281542 C74.9930474,207.284134 73.553809,207.739857 72.1039724,207.313809 C70.6562556,206.875043 69.7087748,205.700761 70.0012857,204.687571 C70.302275,203.678621 71.7478721,203.20382 73.2083069,203.659543 C74.6539041,204.09619 75.6035048,205.261994 75.3025151,206.281542 Z M86.046947,207.473627 C86.0829806,208.529209 84.8535871,209.404622 83.3316829,209.4237 C81.8013,209.457614 80.563428,208.603398 80.5464708,207.564772 C80.5464708,206.498591 81.7483088,205.631657 83.2786917,205.606221 C84.8005962,205.576546 86.046947,206.424403 86.046947,207.473627 Z M96.6021471,207.069023 C96.7844366,208.099171 95.7267341,209.156872 94.215428,209.438785 C92.7295577,209.710099 91.3539086,209.074206 91.1652603,208.052538 C90.9808515,206.996955 92.0576306,205.939253 93.5413813,205.66582 C95.054807,205.402984 96.4092596,206.021919 96.6021471,207.069023 Z" fill="#161614"/>
    </g>
</symbol><symbol viewBox="0 0 256 256" id="js">
    <g>
        <path d="M0,0 L256,0 L256,256 L0,256 L0,0 Z" fill="#F7DF1E"/>
        <path d="M67.311746,213.932292 L86.902654,202.076241 C90.6821079,208.777346 94.1202286,214.447137 102.367086,214.447137 C110.272203,214.447137 115.256076,211.354819 115.256076,199.326883 L115.256076,117.528787 L139.313575,117.528787 L139.313575,199.666997 C139.313575,224.58433 124.707759,235.925943 103.3984,235.925943 C84.1532952,235.925943 72.9819429,225.958603 67.3113397,213.93026" fill="#000000"/>
        <path d="M152.380952,211.354413 L171.969422,200.0128 C177.125994,208.433981 183.827911,214.619835 195.684368,214.619835 C205.652521,214.619835 212.009041,209.635962 212.009041,202.762159 C212.009041,194.513676 205.479416,191.592025 194.481168,186.78207 L188.468419,184.202565 C171.111213,176.81473 159.597308,167.53534 159.597308,147.944838 C159.597308,129.901308 173.344508,116.153295 194.825752,116.153295 C210.119924,116.153295 221.117765,121.48094 229.021663,135.400432 L210.29059,147.428775 C206.166146,140.040127 201.699556,137.119289 194.826159,137.119289 C187.78047,137.119289 183.312254,141.587098 183.312254,147.428775 C183.312254,154.646349 187.78047,157.568406 198.089956,162.036622 L204.103924,164.614095 C224.553448,173.378641 236.067352,182.313448 236.067352,202.418387 C236.067352,224.071924 219.055137,235.927975 196.200432,235.927975 C173.860978,235.927975 159.425829,225.274311 152.381359,211.354413" fill="#000000"/>
    </g>
</symbol><symbol viewBox="0 0 42 42" id="photoshop"><path fill="#03A9F4" d="M6,10c0-2.209,1.791-4,4-4h28c2.209,0,4,1.791,4,4v28c0,2.209-1.791,4-4,4H10c-2.209,0-4-1.791-4-4V10z"/><path fill="#020F16" d="M20.016,19.174h-2.002v4.434h1.973c0.547,0,0.97-0.179,1.27-0.537s0.449-0.879,0.449-1.563c0-0.71-0.153-1.274-0.459-1.694S20.53,19.181,20.016,19.174z"/><path fill="#020F16" d="M9,9v30h30V9H9z M23.365,24.789C22.539,25.597,21.393,26,19.928,26h-1.914v5h-2.871V16.781h4.844c1.406,0,2.528,0.437,3.364,1.309s1.255,2.005,1.255,3.398S24.192,23.981,23.365,24.789z M32.682,30.336c-0.709,0.573-1.641,0.859-2.793,0.859c-0.775,0-1.459-0.151-2.051-0.454s-1.057-0.725-1.392-1.265s-0.503-1.123-0.503-1.748h2.627c0.014,0.481,0.125,0.843,0.337,1.084s0.558,0.361,1.04,0.361c0.742,0,1.113-0.335,1.113-1.006c0-0.234-0.112-0.451-0.337-0.649S30,27.052,29.225,26.713c-1.139-0.462-1.922-0.94-2.349-1.436s-0.64-1.11-0.64-1.846c0-0.925,0.334-1.688,1.001-2.29s1.552-0.903,2.651-0.903c1.158,0,2.086,0.3,2.783,0.898s1.045,1.403,1.045,2.412h-2.764c0-0.859-0.357-1.289-1.074-1.289c-0.293,0-0.533,0.091-0.723,0.273s-0.283,0.437-0.283,0.762c0,0.234,0.104,0.441,0.313,0.62s0.699,0.435,1.475,0.767c1.127,0.417,1.922,0.881,2.388,1.392s0.698,1.174,0.698,1.987C33.746,29.005,33.391,29.763,32.682,30.336z"/></symbol><symbol viewBox="0 0 580.3 550.10004" id="react"><circle fill='rgb(0, 216, 255)' class="st0" cx="299.5" cy="299.6" r="50.2"/><g><path fill='rgb(0, 216, 255)' class="st0" d="M299.5,414.6c-70.5,0-132.1-8.3-178.2-24.1c-29.9-10.2-55.3-23.8-73.4-39.3c-19.2-16.4-29.4-34.3-29.4-51.6   c0-33.2,36.4-65.7,97.5-86.9c50-17.4,115.2-27.1,183.4-27.1c67,0,131.3,9.4,181,26.6c29.1,10,53.6,23,71,37.4   c18.9,15.8,28.9,33.1,28.9,50c0,34.5-40.7,69.4-106.3,91.1C427.6,406.1,365.6,414.6,299.5,414.6z M299.5,209.6   c-64.7,0-128.7,9.4-175.5,25.7c-56.2,19.6-81.4,46.4-81.4,64.3c0,18.6,27.1,47.9,86.5,68.2c43.6,14.9,102.6,22.8,170.4,22.8   c63.6,0,122.9-8,167-22.7c61.7-20.5,89.9-49.8,89.9-68.3c0-9.5-7.2-20.7-20.3-31.6c-15.1-12.6-37.1-24.1-63.4-33.2   C425.4,218.6,363.9,209.6,299.5,209.6z"/></g><g><path fill='rgb(0, 216, 255)' class="st0" d="M185.6,549.8c-10.2,0-19.2-2.2-26.8-6.6c-28.7-16.6-38.7-64.4-26.6-127.9c9.9-52.1,34.1-113.3,68.2-172.4   c33.5-58,73.7-109,113.4-143.5c23.2-20.2,46.7-35,67.9-42.8c23.1-8.5,43.1-8.5,57.7-0.1c29.9,17.2,39.8,70,25.8,137.6   c-9.9,48-33.5,105.9-66.5,163.2c-35.2,61-73.2,110.2-109.9,142.3c-23.8,20.8-48.3,36-70.7,43.9   C206.4,547.7,195.4,549.8,185.6,549.8z M210.7,248.9l10.4,6c-32.3,56-56.2,116.1-65.4,164.9c-11.1,58.5-0.4,93.7,15,102.6   c3.8,2.2,8.8,3.4,14.9,3.4c19.9,0,51.2-12.6,87.4-44.2c34.7-30.3,71-77.5,104.9-136.2c31.8-55.1,54.4-110.5,63.8-156   c13.1-63.7,1.8-102.7-14.3-112c-8.2-4.7-21.5-4.1-37.5,1.8c-18.5,6.8-39.4,20.1-60.4,38.4c-37.7,32.8-76.2,81.6-108.4,137.4   L210.7,248.9z"/></g><g><path fill='rgb(0, 216, 255)' class="st0" d="M413.4,550.1c-27.2,0-61.7-16.4-97.7-47.4c-40.2-34.6-81.1-86.1-115.3-145.2v0c-33.6-58-57.6-118.3-67.7-170   c-5.9-30.2-7-57.9-3.2-80.2c4.2-24.3,14.1-41.6,28.8-50.1c29.8-17.3,80.5,0.5,132.1,46.4c36.6,32.5,75,81.9,108.1,139.1   c35.3,61,59,118.5,68.4,166.3c6.1,31,7.1,59.8,2.8,83.2c-4.6,24.9-15,42.6-30,51.3C432.2,547.9,423.3,550.1,413.4,550.1z    M221.2,345.5c32.4,56,72.6,106.7,110.2,139c45.1,38.8,80.9,47.2,96.4,38.2c16.1-9.3,27.9-47.4,15.7-109   c-9-45.2-31.7-100.2-65.7-158.9c-31.9-55.1-68.6-102.4-103.3-133.2C225.9,78.4,186.5,68.7,170.4,78c-8.2,4.7-14.3,16.6-17.2,33.4   c-3.3,19.4-2.3,44.2,3.1,71.5C165.9,232,188.9,289.7,221.2,345.5L221.2,345.5z"/></g></symbol><symbol viewBox="0 0 255.99992 243.03333" id="redux">
    <g>
        <path d="M177.380953,169.732752 C186.828305,168.755405 193.995262,160.610839 193.669491,150.83736 C193.34372,141.063881 185.199451,133.245097 175.426328,133.245097 L174.774787,133.245097 C164.675893,133.57088 156.857395,142.041229 157.183166,152.14049 C157.508937,157.02723 159.463561,161.262404 162.395498,164.194448 C151.319292,186.021884 134.379213,201.985233 108.969093,215.342321 C91.7032429,224.464235 73.7858511,227.722061 55.8684592,225.441583 C41.208775,223.486887 29.8067984,216.971234 22.6398417,206.220408 C12.2151773,190.257058 11.237865,172.990579 20.0336756,155.724099 C26.22332,143.344359 35.9964428,134.222445 42.1860873,129.661488 C40.8830043,125.426314 38.9283797,118.259096 37.9510674,113.046574 C-9.28569288,147.253751 -4.39913147,193.514885 9.934782,215.342321 C20.6852171,231.631453 42.5118581,241.730715 66.6188943,241.730715 C73.1343096,241.730715 79.6497248,241.079149 86.16514,239.450236 C127.863797,231.30567 159.463561,206.54619 177.380953,169.732752 Z M234.716607,129.335706 C209.958029,100.341051 173.471704,84.3777023 131.773046,84.3777023 L126.560714,84.3777023 C123.628777,78.5136149 117.439133,74.6042233 110.597947,74.6042233 L109.946406,74.6042233 C99.8475119,74.9300059 92.0290137,83.4003544 92.3547844,93.499616 C92.6805552,103.273095 100.824824,111.091878 110.597947,111.091878 L111.249489,111.091878 C118.416445,110.766096 124.60609,106.205139 127.212256,100.015269 L133.07613,100.015269 C157.834707,100.015269 181.290202,107.182487 202.465302,121.19114 C218.75384,131.941967 230.481587,145.95062 236.997002,162.891317 C242.535105,176.574188 242.209334,189.931276 236.345461,201.333668 C227.223879,218.600148 211.912654,228.047844 191.714866,228.047844 C178.684036,228.047844 166.304747,224.138452 159.789332,221.206409 C156.205854,224.464235 149.690438,229.676757 145.129648,232.934584 C159.13779,239.450236 173.471704,243.033845 187.154076,243.033845 C218.428069,243.033845 241.557793,225.767366 250.353603,208.500886 C259.800955,189.605493 259.149414,157.02723 234.716607,129.335706 Z M69.2250604,175.271057 C69.5508312,185.044536 77.6951002,192.86332 87.468223,192.86332 L88.1197645,192.86332 C98.2186581,192.537537 106.037156,184.067188 105.711386,173.967927 C105.385615,164.194448 97.2413458,156.375664 87.468223,156.375664 L86.8166815,156.375664 C86.16514,156.375664 85.1878277,156.375664 84.5362862,156.701447 C71.179685,134.548228 65.6415821,110.440313 67.5962066,84.3777023 C68.8992897,64.8307442 75.4147049,47.8900472 86.8166815,33.881394 C96.2640336,21.8274365 114.507196,15.9633491 126.886485,15.6375664 C161.418186,14.9860012 176.07787,57.9893089 177.055182,75.2557885 C181.290202,76.2331364 188.457159,78.5136149 193.34372,80.142528 C189.434471,27.3657413 156.857395,0 125.583402,0 C96.2640336,0 69.2250604,21.1758712 58.4746253,52.4510041 C43.4891703,94.1511813 53.2622932,134.222445 71.5054558,165.823361 C69.876602,168.103839 68.8992897,171.687448 69.2250604,175.271057 Z" fill="#764ABC"/>
    </g>
</symbol><symbol viewBox="0 0 255.74677 191.90424" id="sass">
    <g fill="#CD6799">
        <path d="M220.281239,110.513661 C211.374863,110.560291 203.634244,112.705282 197.152641,115.876138 C194.774499,111.166485 192.396357,106.969763 191.976685,103.892168 C191.510383,100.301639 190.95082,98.1100182 191.510383,93.8200364 C192.069945,89.5300546 194.587978,83.4214936 194.541348,82.9551913 C194.494718,82.4888889 193.981785,80.2972678 188.852459,80.2506375 C183.723133,80.2040073 179.29326,81.2298725 178.780328,82.5821494 C178.267395,83.9344262 177.28816,87.0120219 176.635337,90.182878 C175.749362,94.8459016 166.376685,111.492896 161.014208,120.21275 C159.288889,116.808743 157.796721,113.824408 157.47031,111.446266 C157.004007,107.855738 156.444444,105.664117 157.004007,101.374135 C157.56357,97.084153 160.081603,90.975592 160.034973,90.5092896 C159.988342,90.0429872 159.47541,87.8513661 154.346084,87.8047359 C149.216758,87.7581056 144.786885,88.7839709 144.273953,90.1362477 C143.76102,91.4885246 143.201457,94.6593807 142.128962,97.7369763 C141.056466,100.814572 128.606193,128.606193 125.342077,135.78725 C123.663388,139.471038 122.217851,142.408743 121.191985,144.413843 L121.191985,144.413843 C121.191985,144.413843 121.145355,144.553734 121.005464,144.786885 C120.11949,146.512204 119.606557,147.444809 119.606557,147.444809 C119.606557,147.444809 119.606557,147.444809 119.606557,147.491439 C118.907104,148.750455 118.16102,149.916211 117.787978,149.916211 C117.508197,149.916211 116.995264,146.558834 117.881239,141.989071 C119.746448,132.336612 124.176321,117.321676 124.12969,116.808743 C124.12969,116.528962 124.969035,113.917668 121.238616,112.565392 C117.601457,111.213115 116.295811,113.451366 115.969399,113.451366 C115.642987,113.451366 115.409836,114.24408 115.409836,114.24408 C115.409836,114.24408 119.466667,97.3639344 107.669217,97.3639344 C100.301639,97.3639344 90.1362477,105.430965 85.1001821,112.705282 C81.929326,114.430601 75.1679417,118.11439 67.940255,122.07796 C65.189071,123.616758 62.3446266,125.155556 59.6867031,126.601093 C59.5001821,126.414572 59.3136612,126.181421 59.1271403,125.9949 C44.8582878,110.746812 18.4655738,99.9752277 19.5846995,79.5045537 C20.0043716,72.0437158 22.5690346,52.4590164 70.2717668,28.6775956 C109.534426,9.32604736 140.776685,14.6885246 146.185792,26.579235 C153.926412,43.5526412 129.445537,75.0746812 88.8772313,79.6444444 C73.3959927,81.3697632 65.2823315,75.4010929 63.2306011,73.1628415 C61.0856102,70.8313297 60.7591985,70.691439 59.9664845,71.1577413 C58.6608379,71.8571949 59.5001821,73.9555556 59.9664845,75.1679417 C61.1788707,78.3387978 66.168306,83.9344262 74.6083789,86.6856102 C82.0692168,89.1103825 100.208379,90.4626594 122.17122,81.9759563 C146.745355,72.463388 165.957013,46.0240437 160.314754,23.8746812 C154.672495,1.3989071 117.368306,-6.01530055 82.0692168,6.52823315 C61.0856102,13.989071 38.3300546,25.7398907 21.9628415,41.0346084 C2.51803279,59.2204007 -0.559562842,75.028051 0.699453552,81.6495446 C5.22258652,105.151184 37.6306011,120.445902 50.5938069,131.777049 C49.9409836,132.150091 49.3347905,132.476503 48.8218579,132.756284 C42.340255,135.97377 17.6262295,148.890346 11.4710383,162.553005 C4.47650273,178.034244 12.5901639,189.13224 17.9526412,190.624408 C34.5996357,195.240801 51.7129326,186.940619 60.8990893,173.23133 C70.0852459,159.52204 68.9661202,141.70929 64.7227687,133.548998 C64.6761384,133.455738 64.6295082,133.362477 64.5362477,133.269217 C66.2149362,132.289982 67.940255,131.264117 69.6189435,130.284882 C72.9296903,128.326412 76.1938069,126.507832 78.9916211,125.015665 C77.4061931,129.352277 76.2404372,134.528233 75.6808743,141.989071 C74.9814208,150.755556 78.571949,162.133333 83.2816029,166.609836 C85.3799636,168.568306 87.8513661,168.614936 89.4367942,168.614936 C94.9391621,168.614936 97.4105647,164.045173 100.161749,158.636066 C103.519126,152.014572 106.550091,144.320583 106.550091,144.320583 C106.550091,144.320583 102.773042,165.117668 113.031694,165.117668 C116.762113,165.117668 120.539162,160.268124 122.217851,157.796721 L122.217851,157.843352 C122.217851,157.843352 122.311111,157.703461 122.497632,157.377049 C122.870674,156.770856 123.103825,156.397814 123.103825,156.397814 L123.103825,156.304554 C124.595993,153.69326 127.95337,147.77122 132.942805,137.93224 C139.377778,125.248816 145.579599,109.394536 145.579599,109.394536 C145.579599,109.394536 146.139162,113.264845 148.051002,119.699818 C149.170128,123.476867 151.501639,127.626958 153.366849,131.637158 C151.874681,133.735519 150.942077,134.901275 150.942077,134.901275 C150.942077,134.901275 150.942077,134.901275 150.988707,134.947905 C149.776321,136.533333 148.470674,138.258652 147.025137,139.937341 C141.942441,145.999271 135.88051,152.947177 135.041166,154.952277 C134.061931,157.330419 134.295082,159.055738 136.160291,160.454645 C137.512568,161.48051 139.937341,161.620401 142.408743,161.48051 C146.978506,161.154098 150.195993,160.034973 151.781421,159.335519 C154.252823,158.449545 157.143898,157.097268 159.848452,155.092168 C164.837887,151.408379 167.868852,146.139162 167.589071,139.191257 C167.44918,135.367577 166.190164,131.543898 164.651366,127.95337 C165.117668,127.300546 165.537341,126.647723 166.003643,125.9949 C173.884153,114.477231 179.992714,101.840437 179.992714,101.840437 C179.992714,101.840437 180.552277,105.710747 182.464117,112.145719 C183.396721,115.409836 185.308561,118.953734 186.98725,122.404372 C179.573042,128.419672 175.003279,135.414208 173.37122,139.983971 C170.433515,148.470674 172.718397,152.294353 177.055009,153.180328 C179.013479,153.6 181.811293,152.667395 183.863024,151.781421 C186.474317,150.942077 189.551913,149.496539 192.489617,147.351548 C197.479053,143.66776 202.281967,138.538434 202.002186,131.590528 C201.862295,128.419672 201.022951,125.295446 199.857195,122.264481 C206.152277,119.653188 214.265938,118.20765 224.617851,119.420036 C246.813843,122.03133 251.197086,135.88051 250.357741,141.70929 C249.518397,147.538069 244.855373,150.708925 243.316576,151.68816 C241.777778,152.667395 241.264845,152.993807 241.404736,153.69326 C241.591257,154.719126 242.337341,154.672495 243.642987,154.485974 C245.461566,154.159563 255.300546,149.776321 255.720219,139.051366 C256.419672,125.342077 243.363206,110.37377 220.281239,110.513661 L220.281239,110.513661 Z M49.0550091,168.241894 C41.6874317,176.262295 31.4287796,179.29326 26.9989071,176.728597 C22.242623,173.977413 24.1078324,162.133333 33.1540984,153.64663 C38.6564663,148.470674 45.7442623,143.66776 50.4539162,140.730055 C51.5264117,140.077231 53.1118397,139.144627 55.0236794,137.978871 C55.3500911,137.79235 55.536612,137.699089 55.536612,137.699089 L55.536612,137.699089 C55.9096539,137.465938 56.2826958,137.232787 56.6557377,136.999636 C59.9664845,149.123497 56.7956284,159.801821 49.0550091,168.241894 L49.0550091,168.241894 Z M102.679781,131.777049 C100.115118,138.025501 94.7526412,154.019672 91.4885246,153.133698 C88.6907104,152.387614 86.9653916,140.263752 90.9289617,128.279781 C92.9340619,122.264481 97.1774135,115.083424 99.648816,112.28561 C103.659016,107.809107 108.088889,106.31694 109.161384,108.135519 C110.513661,110.513661 104.265209,127.860109 102.679781,131.777049 L102.679781,131.777049 Z M146.931876,152.947177 C145.859381,153.50674 144.833515,153.879781 144.367213,153.6 C144.040801,153.413479 144.833515,152.667395 144.833515,152.667395 C144.833515,152.667395 150.382514,146.698725 152.574135,143.994171 C153.833151,142.408743 155.325319,140.543534 156.910747,138.445173 L156.910747,139.051366 C156.910747,146.185792 150.009472,150.988707 146.931876,152.947177 L146.931876,152.947177 Z M181.065209,145.159927 C180.272495,144.600364 180.412386,142.735155 183.07031,136.906375 C184.096175,134.621494 186.520947,130.797814 190.671038,127.114026 C191.137341,128.606193 191.463752,130.05173 191.417122,131.404007 C191.370492,140.403643 184.935519,143.76102 181.065209,145.159927 L181.065209,145.159927 Z"/>
    </g>
</symbol><symbol viewBox="0 0 42 42" id="typescript"><rect width="36" height="36" x="6" y="6" fill="#1976d2"/><polygon fill="#fff" points="27.49,22 14.227,22 14.227,25.264 18.984,25.264 18.984,40 22.753,40 22.753,25.264 27.49,25.264"/><path fill="#fff" d="M39.194,26.084c0,0-1.787-1.192-3.807-1.192s-2.747,0.96-2.747,1.986 c0,2.648,7.381,2.383,7.381,7.712c0,8.209-11.254,4.568-11.254,4.568V35.22c0,0,2.152,1.622,4.733,1.622s2.483-1.688,2.483-1.92 c0-2.449-7.315-2.449-7.315-7.878c0-7.381,10.658-4.469,10.658-4.469L39.194,26.084z"/></symbol><symbol viewBox="0 0 256 255.99866" id="vscode">
    <g>
        <path d="M191.97885,0 L191.97885,219.867316 L0,191.353848 L191.97885,255.998083 L255.97885,229.374998 L255.97885,30.592308 L256,30.5826932 L255.97885,30.5403853 L255.97885,26.6250001 L191.97885,0 Z M124.796158,37.4576925 L65.9942314,95.5826932 L30.5923079,68.9211553 L16.0019234,73.7942316 L52.0192315,109.398076 L16.0019234,145.000006 L30.5923079,149.875005 L65.9942314,123.211541 L65.9961553,123.211541 L124.794228,181.332699 L160.011538,166.369233 L160.011538,52.4211546 L124.796158,37.4576925 Z M124.794228,78.9307702 L124.794228,139.857695 L84.340386,109.394236 L124.794228,78.9307702 Z" fill="#016EC5"/>
    </g>
</symbol></svg>